normalP08_grf.mot
version=1
nRows=15
nColumns=19
inDegrees=yes
endheader
time	1_ground_force_vx	1_ground_force_vy	1_ground_force_vz	1_ground_force_px	1_ground_force_py	1_ground_force_pz	1_ground_torque_x	1_ground_torque_y	1_ground_torque_z	2_ground_force_vx	2_ground_force_vy	2_ground_force_vz	2_ground_force_px	2_ground_force_py	2_ground_force_pz	2_ground_torque_x	2_ground_torque_y	2_ground_torque_z
            2.215000	           -0.095020	           -0.079655	           -0.028269	            0.360211	            0.002685	           -0.262064	           -0.035621	           -0.003569	            0.086381	          -24.159774	          644.330481	          -22.660969	            0.839821	            0.001032	           -0.179966	            0.023781	           -0.634239	            0.022306
            2.216000	           -0.164200	           -0.157200	           -0.051466	            0.360211	            0.002685	           -0.262064	           -0.119687	            0.007897	           -0.017465	          -23.994260	          643.288995	          -22.534055	            0.840327	            0.001030	           -0.179930	            0.023826	           -0.638786	            0.022376
            2.217000	           -0.093924	            0.240238	           -0.065459	            0.360211	            0.002685	           -0.262064	            0.064474	           -0.005773	            0.044719	          -23.875476	          642.007758	          -22.377137	            0.841039	            0.001028	           -0.179998	            0.023716	           -0.637719	            0.022228
            2.218000	           -0.133126	            0.001087	           -0.043298	            0.360211	            0.002685	           -0.262064	           -0.019124	            0.007707	            0.065537	          -23.694864	          640.886573	          -22.281284	            0.841445	            0.001027	           -0.179926	            0.023696	           -0.640918	            0.022282
            2.219000	           -0.142294	           -0.476766	           -0.060275	            0.360211	            0.002685	           -0.262064	           -0.086135	           -0.007149	            0.024185	          -23.599592	          639.445561	          -22.155946	            0.842275	            0.001025	           -0.180029	            0.024020	           -0.650841	            0.022551
            2.220000	           -0.164099	           -0.157769	           -0.105151	            0.360211	            0.002685	           -0.262064	           -0.019239	           -0.020165	            0.024055	          -23.482024	          637.764839	          -22.054461	            0.842922	            0.001023	           -0.180027	            0.023994	           -0.651668	            0.022535
            2.221000	           -0.140955	           -0.077309	           -0.051234	            0.360211	            0.002685	           -0.262064	           -0.069521	           -0.001642	           -0.079666	          -23.348158	          636.403385	          -21.944146	            0.843735	            0.001020	           -0.180059	            0.024272	           -0.661589	            0.022813
            2.222000	           -0.179981	           -0.317183	           -0.075113	            0.360211	            0.002685	           -0.262064	            0.014323	           -0.024727	           -0.058703	          -23.266492	          635.523093	          -21.808828	            0.844075	            0.001020	           -0.180147	            0.023959	           -0.654447	            0.022458
            2.223000	           -0.134220	           -0.316181	           -0.059763	            0.360211	            0.002685	           -0.262064	           -0.052867	           -0.003555	           -0.100305	          -23.164749	          633.681665	          -21.715782	            0.844847	            0.001017	           -0.180021	            0.024242	           -0.663157	            0.022726
            2.224000	           -0.110670	           -0.158363	           -0.059203	            0.360211	            0.002685	           -0.262064	           -0.019017	           -0.004808	           -0.017260	          -23.069460	          632.242084	          -21.690302	            0.845234	            0.001016	           -0.180072	            0.024005	           -0.657889	            0.022570
            2.225000	           -0.102563	            0.001503	           -0.074026	            0.360211	            0.002685	           -0.262064	            0.047722	           -0.008957	           -0.017376	          -22.964790	          631.360808	          -21.562761	            0.845907	            0.001014	           -0.180159	            0.024267	           -0.667163	            0.022786
            2.226000	           -0.142097	           -0.397215	           -0.083020	            0.360211	            0.002685	           -0.262064	           -0.069449	           -0.010955	            0.086310	          -22.873788	          631.039159	          -21.509895	            0.846667	            0.001012	           -0.180284	            0.024041	           -0.663250	            0.022608
            2.227000	           -0.110602	           -0.158081	           -0.105139	            0.360211	            0.002685	           -0.262064	            0.047814	           -0.011480	           -0.017260	          -22.778741	          629.518896	          -21.469458	            0.847152	            0.001011	           -0.180246	            0.024128	           -0.666808	            0.022741
            2.228000	           -0.118652	           -0.237831	           -0.082454	            0.360211	            0.002685	           -0.262064	           -0.069350	           -0.002023	            0.044847	          -22.675798	          628.077656	          -21.405737	            0.847877	            0.001008	           -0.180191	            0.024501	           -0.678635	            0.023129
            2.229000	           -0.119396	           -0.476601	           -0.052671	            0.360211	            0.002685	           -0.262064	           -0.019275	           -0.012379	           -0.017249	          -22.510286	          627.037310	          -21.363360	            0.848411	            0.001007	           -0.180315	            0.024500	           -0.682463	            0.023252
